<?xml version="1.0" encoding="UTF-8"?>
<!-- Generated by Pixelmator Pro 3.7.1 -->
<svg width="1379" height="354" viewBox="0 0 1379 354" xmlns="http://www.w3.org/2000/svg">
    <path id="Path" fill="#c62c24" stroke="none" d="M 531 0 L 1379 0 L 1379 354 L 531 354 Z"/>
    <path id="path1" fill="#c62c24" stroke="none" d="M 266 177 L 355 177 L 355 266 L 266 266 Z"/>
    <path id="path2" fill="#c62c24" stroke="none" d="M 0 177 L 89 177 L 89 266 L 0 266 Z"/>
    <path id="path3" fill="#c62c24" stroke="none" d="M 442 88 L 531 88 L 531 177 L 442 177 Z"/>
    <path id="path4" fill="#c62c24" stroke="none" d="M 177 88 L 266 88 L 266 177 L 177 177 Z"/>
    <path id="path5" fill="#c62c24" stroke="none" d="M 89 88 L 178 88 L 178 177 L 89 177 Z"/>
    <path id="path6" fill="#c62c24" stroke="none" d="M 267 0 L 355 0 L 355 88 L 267 88 Z"/>
    <path id="path7" fill="#c62c24" stroke="none" d="M 355 266 L 443 266 L 443 354 L 355 354 Z"/>
    <path id="path8" fill="#c62c24" stroke="none" d="M 89 266 L 177 266 L 177 354 L 89 354 Z"/>
    <path id="path9" fill="#c62c24" stroke="none" d="M 442 177 L 531 177 L 531 266 L 442 266 Z"/>
    <path id="path10" fill="#c62c24" stroke="none" d="M 355 0 L 443 0 L 443 88 L 355 88 Z"/>
    <path id="HACKS" fill="#e9e7e1" stroke="none" d="M 680 240.360001 L 717.919983 240.360001 L 717.919983 171.720016 L 759.919983 171.720016 L 759.919983 353.160004 L 717.919983 353.160004 L 717.919983 278.76001 L 680 278.76001 L 680 353.160004 L 637.999939 353.160004 L 637.999939 171.720016 L 680 171.720016 L 680 240.360001 Z M 849.403992 232.919998 C 849.403992 227.800003 847.484009 223.399994 843.643982 219.720001 C 839.963989 215.880005 835.564026 213.959991 830.444031 213.959991 C 825.324036 213.959991 820.843994 215.880005 817.004028 219.720001 C 813.324036 223.399994 811.484009 227.800003 811.484009 232.919998 L 811.484009 283.559998 L 849.403992 283.559998 L 849.403992 232.919998 Z M 769.484009 232.679993 C 769.484009 221.800003 772.203979 211.720001 777.643982 202.440002 C 783.244019 193 790.684021 185.559998 799.963989 180.120026 C 809.403992 174.680023 819.643982 171.960022 830.684021 171.960022 C 841.564026 171.960022 851.643982 174.680023 860.924011 180.120026 C 870.364014 185.559998 877.804016 193 883.244019 202.440002 C 888.684021 211.720001 891.403992 221.800003 891.403992 232.679993 L 891.403992 353.160004 L 849.403992 353.160004 L 849.403992 321.960022 L 811.484009 321.960022 L 811.484009 353.160004 L 769.484009 353.160004 L 769.484009 232.679993 Z M 1027.448975 227.399994 C 1022.809021 222.759995 1017.449036 219.160004 1011.369019 216.600006 C 1005.289001 214.040009 998.968994 212.759995 992.408997 212.759995 C 983.609009 212.759995 975.369019 215 967.689026 219.479996 C 960.169006 223.959991 954.169006 230.040009 949.689026 237.720001 C 945.209045 245.23999 942.968994 253.480011 942.968994 262.440002 C 942.968994 271.23999 945.209045 279.480011 949.689026 287.160004 C 954.169006 294.679993 960.169006 300.679993 967.689026 305.160004 C 975.369019 309.640015 983.609009 311.880005 992.408997 311.880005 C 998.968994 311.880005 1005.289001 310.600006 1011.369019 308.039978 C 1017.449036 305.47998 1022.809021 301.880005 1027.448975 297.23999 L 1052.169067 331.320007 C 1043.369019 338.52002 1034.169067 344.119995 1024.56897 348.119995 C 1014.968994 351.960022 1004.408997 353.880005 992.889038 353.880005 C 976.249023 353.880005 960.889038 349.799988 946.809021 341.640015 C 932.729004 333.320007 921.528992 322.119995 913.209045 308.039978 C 905.049011 293.959991 900.968994 278.600006 900.968994 261.959991 C 900.968994 245.639999 905.049011 230.520004 913.209045 216.600006 C 921.528992 202.520004 932.729004 191.399994 946.809021 183.240005 C 960.889038 175.080017 976.249023 171.000015 992.889038 171.000015 C 1014.648987 171.000015 1034.409058 178.440018 1052.169067 193.320007 L 1027.448975 227.399994 Z M 1061.75 353.160004 L 1061.75 171.720016 L 1103.75 171.720016 L 1103.75 237.23999 L 1147.430054 171.720016 L 1198.070068 171.720016 L 1137.589966 262.440002 L 1198.070068 353.160004 L 1147.430054 353.160004 L 1103.75 287.640015 L 1103.75 353.160004 L 1061.75 353.160004 Z M 1269.317993 241.080002 C 1282.437988 241.080002 1293.638062 243.720001 1302.918091 249 C 1312.197998 254.279999 1319.158081 261.23999 1323.797974 269.880005 C 1328.598022 278.359985 1330.998047 287.399994 1330.998047 297 C 1330.998047 306.76001 1328.598022 315.960022 1323.797974 324.600006 C 1319.158081 333.080017 1312.197998 339.960022 1302.918091 345.23999 C 1293.638062 350.52002 1282.437988 353.160004 1269.317993 353.160004 L 1209.557983 353.160004 L 1209.557983 311.160004 L 1272.677979 311.160004 C 1277.478027 311.160004 1281.158081 309.799988 1283.718018 307.080017 C 1286.278076 304.359985 1287.557983 301.160004 1287.557983 297.480011 C 1287.557983 293.640015 1286.278076 290.440002 1283.718018 287.880005 C 1281.158081 285.160004 1277.478027 283.799988 1272.677979 283.799988 L 1264.518066 283.799988 C 1251.398071 283.799988 1240.197998 281.160004 1230.918091 275.880005 C 1221.638062 270.600006 1214.677979 263.720001 1210.038086 255.23999 C 1205.398071 246.600006 1203.078003 237.399994 1203.078003 227.639999 C 1203.078003 218.040009 1205.398071 209 1210.038086 200.520004 C 1214.838013 191.880005 1221.797974 184.919998 1230.918091 179.640015 C 1240.197998 174.360016 1251.398071 171.720016 1264.518066 171.720016 L 1321.878052 171.720016 L 1321.878052 213.720001 L 1261.158081 213.720001 C 1256.518066 213.720001 1252.838013 215.080002 1250.118042 217.800003 C 1247.557983 220.520004 1246.278076 223.720001 1246.278076 227.399994 C 1246.278076 231.080002 1247.557983 234.279999 1250.118042 237 C 1252.838013 239.720001 1256.518066 241.080002 1261.158081 241.080002 L 1269.317993 241.080002 Z"/>
    <path id="SHELL" fill="#e9e7e1" stroke="none" d="M 750.23999 69.360107 C 763.359985 69.360107 774.559998 72.000092 783.840027 77.28009 C 793.119995 82.560089 800.080017 89.520111 804.720032 98.160095 C 809.52002 106.639999 811.919983 115.679993 811.919983 125.279999 C 811.919983 135.039993 809.52002 144.240005 804.720032 152.880005 C 800.080017 161.360001 793.119995 168.240005 783.840027 173.520004 C 774.559998 178.800003 763.359985 181.440002 750.23999 181.440002 L 690.47998 181.440002 L 690.47998 139.440002 L 753.599976 139.440002 C 758.400024 139.440002 762.080017 138.080002 764.640015 135.360001 C 767.200012 132.639999 768.47998 129.440002 768.47998 125.759995 C 768.47998 121.919998 767.200012 118.720001 764.640015 116.160004 C 762.080017 113.440002 758.400024 112.080002 753.599976 112.080002 L 745.440002 112.080002 C 732.320007 112.080002 721.119995 109.440002 711.840027 104.160004 C 702.559998 98.880096 695.599976 92.000092 690.959961 83.520111 C 686.319946 74.880096 683.999939 65.680084 683.999939 55.920105 C 683.999939 46.320099 686.319946 37.28009 690.959961 28.800079 C 695.76001 20.160095 702.719971 13.200104 711.840027 7.920044 C 721.119995 2.640045 732.320007 6.1e-05 745.440002 6.1e-05 L 802.799988 6.1e-05 L 802.799988 42.000092 L 742.080017 42.000092 C 737.440002 42.000092 733.76001 43.360107 731.039978 46.080109 C 728.47998 48.800079 727.200012 52.000092 727.200012 55.680084 C 727.200012 59.360107 728.47998 62.560089 731.039978 65.28009 C 733.76001 68.000092 737.440002 69.360107 742.080017 69.360107 L 750.23999 69.360107 Z M 863.343994 68.640106 L 901.264038 68.640106 L 901.264038 6.1e-05 L 943.264038 6.1e-05 L 943.264038 181.440002 L 901.264038 181.440002 L 901.264038 107.039993 L 863.343994 107.039993 L 863.343994 181.440002 L 821.343994 181.440002 L 821.343994 6.1e-05 L 863.343994 6.1e-05 L 863.343994 68.640106 Z M 1011.14801 42.000092 C 1006.348022 42.000092 1002.588013 43.360107 999.868042 46.080109 C 997.308044 48.640106 996.028015 51.760101 996.028015 55.440094 C 996.028015 59.120087 997.308044 62.320099 999.868042 65.0401 C 1002.588013 67.760101 1006.348022 69.120087 1011.14801 69.120087 L 1046.187988 69.120087 L 1054.108032 69.120087 L 1054.108032 111.119995 L 1011.14801 111.119995 C 1006.348022 111.119995 1002.588013 112.559998 999.868042 115.440002 C 997.308044 118.160004 996.028015 121.440002 996.028015 125.279999 C 996.028015 129.119995 997.308044 132.479996 999.868042 135.360001 C 1002.588013 138.080002 1006.348022 139.440002 1011.14801 139.440002 L 1071.868042 139.440002 L 1071.868042 181.440002 L 1014.507996 181.440002 C 1001.388 181.440002 990.187988 178.800003 980.90802 173.520004 C 971.627991 168.240005 964.588013 161.360001 959.788025 152.880005 C 955.14801 144.240005 952.828003 135.039993 952.828003 125.279999 C 952.828003 118.87999 953.868042 112.720001 955.947998 106.800003 C 958.028015 100.720001 961.067993 95.200104 965.067993 90.240082 C 961.067993 85.440094 958.028015 80.080109 955.947998 74.160095 C 953.868042 68.080109 952.828003 61.840088 952.828003 55.440094 C 952.828003 45.840088 955.14801 36.880096 959.788025 28.560089 C 964.588013 20.080078 971.627991 13.200104 980.90802 7.920044 C 990.187988 2.640045 1001.388 6.1e-05 1014.507996 6.1e-05 L 1071.868042 6.1e-05 L 1071.868042 42.000092 L 1011.14801 42.000092 Z M 1142.219971 181.919998 C 1131.339966 181.919998 1121.180054 179.199997 1111.73999 173.759995 C 1102.459961 168.320007 1095.099976 160.960007 1089.660034 151.679993 C 1084.219971 142.240005 1081.5 132.080002 1081.5 121.199997 L 1081.5 6.1e-05 L 1123.5 6.1e-05 L 1123.5 120.959991 C 1123.5 126.080002 1125.339966 130.559998 1129.02002 134.399994 C 1132.859985 138.080002 1137.339966 139.919998 1142.459961 139.919998 L 1178.940063 139.919998 L 1178.940063 181.919998 L 1142.219971 181.919998 Z M 1249.328979 181.919998 C 1238.448975 181.919998 1228.289063 179.199997 1218.848999 173.759995 C 1209.56897 168.320007 1202.208984 160.960007 1196.769043 151.679993 C 1191.328979 142.240005 1188.609009 132.080002 1188.609009 121.199997 L 1188.609009 6.1e-05 L 1230.609009 6.1e-05 L 1230.609009 120.959991 C 1230.609009 126.080002 1232.448975 130.559998 1236.129028 134.399994 C 1239.968994 138.080002 1244.448975 139.919998 1249.56897 139.919998 L 1286.049072 139.919998 L 1286.049072 181.919998 L 1249.328979 181.919998 Z"/>
</svg>
