<svg xmlns="http://www.w3.org/2000/svg" width="1353" height="1489" viewBox="0 0 1353 1489"><path id="Path" fill="none" stroke="#6fa8dd" stroke-width="20" d="M 532.607727 140.060791 L 667.650879 439.14502 L 669.759949 443.816528 L 694.861145 443.816528 L 696.902771 438.947388 L 822.199036 140.060791 L 1313.591919 140.060791 L 1013.061401 755.736328 L 1011.284851 759.375854 L 1013.189209 762.950256 L 1325.339966 1349 L 834.278076 1349 L 684.526794 1022.9198 L 682.402649 1018.299988 L 659.830505 1018.299988 L 657.782532 1023.150024 L 520.224609 1349 L 29 1349 L 341.572906 728.505432 L 343.394043 724.888916 L 341.536499 721.291504 L 41.389446 140.060791 L 532.607727 140.060791 Z"/><path id="THE-10TH-ANNIVERSARY" fill="#e9e7e1" stroke="none" d="M 846 1305.403198 L 846 1302.699585 L 861.257751 1302.699585 L 861.257751 1305.403198 L 855.056335 1305.403198 L 855.056335 1330.511475 L 852.220337 1330.511475 L 852.220337 1305.403198 L 846 1305.403198 Z M 865.209229 1302.699585 L 868.007446 1302.699585 L 868.007446 1314.36499 L 882.149719 1314.36499 L 882.149719 1302.699585 L 884.947876 1302.699585 L 884.947876 1330.511475 L 882.149719 1330.511475 L 882.149719 1317.087524 L 868.007446 1317.087524 L 868.007446 1330.511475 L 865.209229 1330.511475 L 865.209229 1302.699585 Z M 891.735413 1302.699585 L 907.673828 1302.699585 L 907.673828 1305.44104 L 894.514709 1305.44104 L 894.514709 1314.138184 L 907.560364 1314.138184 L 907.560364 1316.860718 L 894.514709 1316.860718 L 894.514709 1327.769897 L 907.560364 1327.769897 L 907.560364 1330.511475 L 891.735413 1330.511475 L 891.735413 1302.699585 Z M 926.996338 1302.699585 L 932.460815 1302.699585 L 932.460815 1330.511475 L 929.700317 1330.511475 L 929.700317 1305.422119 L 925.332764 1305.422119 L 926.996338 1302.699585 Z M 942.537964 1316.61499 C 942.537964 1312.947021 942.928406 1310.110962 943.710083 1308.106934 C 944.503845 1306.102783 945.619507 1304.583984 947.056213 1303.550293 C 948.493774 1302.516846 950.100647 1302 951.877808 1302 C 953.679932 1302 955.312683 1302.523071 956.774414 1303.569214 C 958.236938 1304.602783 959.389709 1306.159424 960.234253 1308.239258 C 961.091797 1310.31897 961.520142 1313.11084 961.520142 1316.61499 C 961.520142 1320.106323 961.098267 1322.88562 960.253662 1324.952759 C 959.421936 1327.019897 958.268372 1328.582886 956.793762 1329.641602 C 955.319153 1330.687866 953.679932 1331.210938 951.877808 1331.210938 C 950.100647 1331.210938 948.49939 1330.700439 947.075562 1329.679443 C 945.651001 1328.658569 944.535339 1327.139648 943.728638 1325.123047 C 942.934875 1323.093628 942.537964 1320.257568 942.537964 1316.61499 Z M 945.166138 1316.671631 C 945.166138 1319.810181 945.442871 1322.186035 945.997864 1323.799438 C 946.564941 1325.400269 947.396667 1326.616577 948.493774 1327.448486 C 949.590027 1328.280396 950.750061 1328.696411 951.972168 1328.696411 C 953.207214 1328.696411 954.360779 1328.292969 955.432068 1327.486328 C 956.503357 1326.666992 957.316528 1325.444336 957.871521 1323.818359 C 958.564453 1321.839478 958.911316 1319.457275 958.911316 1316.671631 C 958.911316 1313.873535 958.602356 1311.585693 957.984436 1309.808472 C 957.36731 1308.018677 956.509827 1306.714111 955.413513 1305.894775 C 954.329346 1305.062866 953.182251 1304.646973 951.972168 1304.646973 C 950.737122 1304.646973 949.577148 1305.062866 948.493774 1305.894775 C 947.409546 1306.714111 946.584351 1307.93042 946.016418 1309.543823 C 945.44928 1311.144531 945.166138 1313.520508 945.166138 1316.671631 Z M 963.411011 1305.403198 L 963.411011 1302.699585 L 978.668701 1302.699585 L 978.668701 1305.403198 L 972.466919 1305.403198 L 972.466919 1330.511475 L 969.631409 1330.511475 L 969.631409 1305.403198 L 963.411011 1305.403198 Z M 982.619873 1302.699585 L 985.418274 1302.699585 L 985.418274 1314.36499 L 999.560303 1314.36499 L 999.560303 1302.699585 L 1002.358704 1302.699585 L 1002.358704 1330.511475 L 999.560303 1330.511475 L 999.560303 1317.087524 L 985.418274 1317.087524 L 985.418274 1330.511475 L 982.619873 1330.511475 L 982.619873 1302.699585 Z M 1031.229248 1302.699585 L 1044.199219 1330.511475 L 1041.212036 1330.511475 L 1036.844604 1321.360474 L 1024.858032 1321.360474 L 1020.509216 1330.511475 L 1017.408325 1330.511475 L 1030.548462 1302.699585 L 1031.229248 1302.699585 Z M 1030.888916 1308.598511 L 1026.105957 1318.675781 L 1035.616089 1318.675781 L 1030.888916 1308.598511 Z M 1048.548096 1330.511475 L 1048.548096 1302.699585 L 1049.153076 1302.699585 L 1067.644043 1323.988525 L 1067.644043 1302.699585 L 1070.385132 1302.699585 L 1070.385132 1330.511475 L 1069.761597 1330.511475 L 1051.421509 1309.487061 L 1051.421509 1330.511475 L 1048.548096 1330.511475 Z M 1077.210449 1330.511475 L 1077.210449 1302.699585 L 1077.815552 1302.699585 L 1096.306396 1323.988525 L 1096.306396 1302.699585 L 1099.04834 1302.699585 L 1099.04834 1330.511475 L 1098.42395 1330.511475 L 1080.084717 1309.487061 L 1080.084717 1330.511475 L 1077.210449 1330.511475 Z M 1105.45752 1302.699585 L 1108.236572 1302.699585 L 1108.236572 1330.511475 L 1105.45752 1330.511475 L 1105.45752 1302.699585 Z M 1112.509521 1302.699585 L 1115.534668 1302.699585 L 1124.742188 1324.196533 L 1134.119873 1302.699585 L 1137.14502 1302.699585 L 1125.044678 1330.511475 L 1124.439697 1330.511475 L 1112.509521 1302.699585 Z M 1141.834229 1302.699585 L 1157.771973 1302.699585 L 1157.771973 1305.44104 L 1144.613281 1305.44104 L 1144.613281 1314.138184 L 1157.659058 1314.138184 L 1157.659058 1316.860718 L 1144.613281 1316.860718 L 1144.613281 1327.769897 L 1157.659058 1327.769897 L 1157.659058 1330.511475 L 1141.834229 1330.511475 L 1141.834229 1302.699585 Z M 1162.72583 1302.699585 L 1168.265381 1302.699585 C 1171.353394 1302.699585 1173.445923 1302.825562 1174.542236 1303.077637 C 1176.193604 1303.455811 1177.535889 1304.268799 1178.570068 1305.516602 C 1179.603394 1306.751953 1180.120483 1308.2771 1180.120483 1310.092041 C 1180.120483 1311.604614 1179.760742 1312.934448 1179.042725 1314.081421 C 1178.336914 1315.228394 1177.322144 1316.098145 1175.998291 1316.690552 C 1174.675293 1317.270386 1172.847412 1317.566528 1170.515259 1317.579102 L 1180.517334 1330.511475 L 1177.07605 1330.511475 L 1167.093262 1317.579102 L 1165.504883 1317.579102 L 1165.504883 1330.511475 L 1162.72583 1330.511475 L 1162.72583 1302.699585 Z M 1165.504883 1305.422119 L 1165.504883 1314.875488 L 1170.288574 1314.91333 C 1172.141602 1314.91333 1173.508911 1314.736816 1174.391357 1314.383911 C 1175.286011 1314.031006 1175.979736 1313.470093 1176.471069 1312.701172 C 1176.97522 1311.9198 1177.227661 1311.050049 1177.227661 1310.092041 C 1177.227661 1309.159424 1176.97522 1308.314819 1176.471069 1307.558594 C 1175.966919 1306.789673 1175.30542 1306.241455 1174.48584 1305.913696 C 1173.666992 1305.585938 1172.305298 1305.422119 1170.402344 1305.422119 L 1165.504883 1305.422119 Z M 1183.220581 1325.330933 L 1185.584229 1323.912964 C 1187.247559 1326.97583 1189.169922 1328.507324 1191.350464 1328.507324 C 1192.283691 1328.507324 1193.15979 1328.292969 1193.978638 1327.864502 C 1194.798218 1327.423218 1195.421753 1326.837158 1195.850952 1326.106079 C 1196.279297 1325.375122 1196.493042 1324.599854 1196.493042 1323.780518 C 1196.493042 1322.8479 1196.178467 1321.93396 1195.547607 1321.039063 C 1194.677979 1319.803833 1193.090454 1318.316528 1190.783325 1316.577148 C 1188.464111 1314.825073 1187.020874 1313.55835 1186.453857 1312.776855 C 1185.470459 1311.466064 1184.979126 1310.047974 1184.979126 1308.522827 C 1184.979126 1307.312744 1185.268799 1306.209961 1185.848755 1305.214111 C 1186.428833 1304.218384 1187.241943 1303.43689 1188.287476 1302.869751 C 1189.346558 1302.289917 1190.493652 1302 1191.72876 1302 C 1193.039673 1302 1194.262573 1302.327759 1195.396729 1302.983154 C 1196.543823 1303.625977 1197.753906 1304.817139 1199.026855 1306.556519 L 1196.75769 1308.2771 C 1195.712158 1306.890503 1194.816772 1305.976685 1194.072998 1305.535522 C 1193.342163 1305.09436 1192.54187 1304.873779 1191.672241 1304.873779 C 1190.550171 1304.873779 1189.630493 1305.214111 1188.911743 1305.894775 C 1188.205933 1306.575439 1187.852661 1307.413574 1187.852661 1308.409424 C 1187.852661 1309.014404 1187.979248 1309.600464 1188.230957 1310.167725 C 1188.483398 1310.734863 1188.943237 1311.352539 1189.611206 1312.02063 C 1189.976685 1312.373535 1191.174561 1313.299927 1193.203369 1314.799927 C 1195.611328 1316.577148 1197.262573 1318.158936 1198.157227 1319.54541 C 1199.05188 1320.932007 1199.499512 1322.324707 1199.499512 1323.723877 C 1199.499512 1325.740601 1198.730835 1327.492676 1197.193237 1328.97998 C 1195.667847 1330.467285 1193.80835 1331.210938 1191.615845 1331.210938 C 1189.926636 1331.210938 1188.394653 1330.763428 1187.020874 1329.86853 C 1185.647095 1328.96106 1184.380615 1327.448486 1183.220581 1325.330933 Z M 1216.742554 1302.699585 L 1229.712402 1330.511475 L 1226.725342 1330.511475 L 1222.35791 1321.360474 L 1210.371338 1321.360474 L 1206.022461 1330.511475 L 1202.921509 1330.511475 L 1216.061646 1302.699585 L 1216.742554 1302.699585 Z M 1216.4021 1308.598511 L 1211.618408 1318.675781 L 1221.12854 1318.675781 L 1216.4021 1308.598511 Z M 1234.193604 1302.699585 L 1239.733154 1302.699585 C 1242.821167 1302.699585 1244.913696 1302.825562 1246.01001 1303.077637 C 1247.661255 1303.455811 1249.00354 1304.268799 1250.036987 1305.516602 C 1251.071167 1306.751953 1251.587402 1308.2771 1251.587402 1310.092041 C 1251.587402 1311.604614 1251.228394 1312.934448 1250.509644 1314.081421 C 1249.803833 1315.228394 1248.789063 1316.098145 1247.466064 1316.690552 C 1246.142334 1317.270386 1244.315063 1317.566528 1241.983032 1317.579102 L 1251.984375 1330.511475 L 1248.543823 1330.511475 L 1238.561035 1317.579102 L 1236.972656 1317.579102 L 1236.972656 1330.511475 L 1234.193604 1330.511475 L 1234.193604 1302.699585 Z M 1236.972656 1305.422119 L 1236.972656 1314.875488 L 1241.756348 1314.91333 C 1243.609253 1314.91333 1244.976563 1314.736816 1245.859131 1314.383911 C 1246.753784 1314.031006 1247.446655 1313.470093 1247.938721 1312.701172 C 1248.442993 1311.9198 1248.69458 1311.050049 1248.69458 1310.092041 C 1248.69458 1309.159424 1248.442993 1308.314819 1247.938721 1307.558594 C 1247.43457 1306.789673 1246.772339 1306.241455 1245.953491 1305.913696 C 1245.133911 1305.585938 1243.773071 1305.422119 1241.869263 1305.422119 L 1236.972656 1305.422119 Z M 1255.369141 1302.699585 L 1258.583008 1302.699585 L 1265.692383 1314.156982 L 1272.687988 1302.699585 L 1275.901855 1302.699585 L 1267.091187 1317.219971 L 1267.091187 1330.511475 L 1264.349976 1330.511475 L 1264.349976 1317.219971 L 1255.369141 1302.699585 Z"/></svg>