<svg xmlns="http://www.w3.org/2000/svg" width="216" height="46" fill="none" viewBox="0 0 216 46"><path fill="#E9E7E1" d="M99.1167 29.6266C100.89 29.6266 102.006 28.6204 102.006 27.3266C102.006 25.386 100.061 24.6816 98.3872 23.5891C96.127 22.2522 94.9398 20.9729 94.9398 18.946C94.9398 16.416 96.8995 14.6047 99.9035 14.6047C101.334 14.6047 102.65 14.921 104.009 15.5966L103.923 18.2129C102.392 17.3791 101.148 16.9191 100.118 16.9191C98.5731 16.9191 97.6862 17.681 97.6862 18.8022C97.6862 20.3116 99.5601 21.0447 101.105 22.0366C103.608 23.5316 104.896 24.9547 104.896 27.2404C104.896 30.101 102.764 32.1422 99.2597 32.1422C97.7148 32.1422 96.2129 31.8116 94.8539 31.1647L94.5964 27.9447C96.2701 29.0372 97.7292 29.6122 99.1167 29.6122"/><path fill="#E9E7E1" d="M82.9383 29.6266C84.7121 29.6266 85.8279 28.6204 85.8279 27.3266C85.8279 25.386 83.8824 24.6816 82.2088 23.5891C79.9487 22.2522 78.7757 20.9729 78.7757 18.946C78.7757 16.416 80.7354 14.6047 83.7394 14.6047C85.1699 14.6047 86.4859 14.921 87.8448 15.5966L87.759 18.2129C86.2284 17.3791 84.9839 16.9191 83.954 16.9191C82.4091 16.9191 81.5365 17.681 81.5365 18.8022C81.5365 20.3116 83.4104 21.0447 84.9553 22.0366C87.4443 23.5316 88.7317 24.9547 88.7317 27.2404C88.7317 30.101 86.6146 32.1422 83.0957 32.1422C81.5508 32.1422 80.0488 31.8116 78.6899 31.1647L78.4324 27.9447C80.1203 29.0372 81.5651 29.6122 82.9526 29.6122"/><path fill="#E9E7E1" d="M114.108 24.7681C114.108 27.9449 115.439 29.5693 118.057 29.5693C120.674 29.5693 122.005 27.9162 122.005 24.6962V15.1799H124.923V24.7393C124.923 29.5406 122.334 32.1424 118.071 32.1424C113.808 32.1424 111.205 29.2387 111.205 24.7824V15.1799H114.108V24.7681Z"/><path fill="#E9E7E1" d="M140.056 20.0531C140.056 17.4943 137.281 17.5231 134.935 17.5231V22.6118C136.766 22.6118 140.056 22.7987 140.056 20.0531ZM132.117 15.1799H135.907C137.996 15.1799 139.598 15.3093 141.014 16.3156C142.23 17.1781 142.931 18.4718 142.931 19.8231C142.931 21.9793 141.658 23.6037 139.355 24.3943L144.633 31.5962H141.286L136.322 24.7824H134.935V31.5962H132.117V15.1799Z"/><path fill="#E9E7E1" d="M198.162 31.5962H195.287V17.6812H189.765V15.1799H203.655V17.6812H198.162V31.5962Z"/><path fill="#E9E7E1" d="M63.0266 25.0555C63.7705 22.9712 64.6144 21.1024 65.7588 19.2624C66.9032 21.1168 67.8188 23.0718 68.5054 25.0555H63.0123H63.0266ZM65.8591 14.648L65.7303 14.5762L65.6015 14.648C61.5532 20.6999 60.0083 23.9774 57.5623 31.5962H60.4804C60.7522 30.5899 61.4388 28.5199 61.7821 27.5424H69.6783C70.0216 28.5199 70.7225 30.5899 70.98 31.5962H73.8981C71.4234 23.9055 69.8356 20.5993 65.8446 14.648"/><path fill="#E9E7E1" d="M153.861 25.0555C154.604 22.9712 155.448 21.1024 156.593 19.2624C157.737 21.1168 158.653 23.0718 159.354 25.0555H153.861ZM156.693 14.648L156.564 14.5762L156.435 14.648C152.373 20.6999 150.842 23.9774 148.396 31.5962H151.314C151.586 30.5899 152.273 28.5199 152.616 27.5424H160.498C160.841 28.5199 161.542 30.5899 161.8 31.5962H164.718C162.243 23.9055 160.655 20.5993 156.679 14.648"/><path fill="#E9E7E1" d="M173.072 21.3899L183.786 32.1568L183.915 32.1137L183.958 31.9843V15.1799H181.197V25.343L170.483 14.5762L170.34 14.6049L170.297 14.7487V31.5962H173.072V21.3899Z"/><path fill="#E9E7E1" d="M211.508 16.9194V18.2706C211.508 18.2706 211.68 18.2706 211.88 18.2706C212.252 18.2706 212.495 18.2275 212.624 18.1269C212.753 18.0262 212.81 17.8537 212.81 17.5805C212.81 17.135 212.524 16.905 211.938 16.905H211.48L211.508 16.9194ZM213.111 20.47L212.095 18.7306H211.508V20.47H210.936V16.4306H211.966C212.939 16.4306 213.411 16.8044 213.411 17.5519C213.411 18.0694 213.153 18.4287 212.639 18.6444L213.74 20.47H213.111ZM214.813 18.4862C214.813 17.7244 214.541 17.0775 214.012 16.5456C213.482 16.0137 212.839 15.7406 212.081 15.7406C211.322 15.7406 210.679 16.0137 210.15 16.5456C209.62 17.0775 209.348 17.7244 209.348 18.4862C209.348 19.2481 209.62 19.895 210.15 20.4269C210.679 20.9587 211.322 21.2319 212.081 21.2319C212.839 21.2319 213.482 20.9587 214.012 20.4269C214.541 19.895 214.813 19.2481 214.813 18.4862ZM208.833 18.4862C208.833 17.5806 209.148 16.8187 209.792 16.1719C210.436 15.5394 211.194 15.2087 212.095 15.2087C212.996 15.2087 213.754 15.525 214.398 16.1719C215.042 16.8187 215.356 17.5806 215.356 18.4862C215.356 19.3919 215.042 20.1537 214.398 20.8006C213.769 21.4331 212.996 21.7637 212.095 21.7637C211.194 21.7637 210.436 21.4475 209.792 20.8006C209.148 20.1537 208.833 19.3919 208.833 18.4862Z"/><path fill="#E9E7E1" d="M15.1771 20.441C17.6804 24.5235 19.9835 28.6923 22.687 32.5735C25.362 36.3973 28.4519 39.9335 31.4416 43.6854C28.6665 45.0223 25.548 45.6691 22.2865 45.5254C21.886 45.511 21.4141 45.1085 21.1137 44.7635C16.2501 39.3154 12.2304 33.2635 8.86882 26.7804C8.62564 26.3204 8.76868 25.6591 8.79729 25.0841C8.79729 24.8541 9.04047 24.6529 9.09769 24.4229C9.97027 21.1454 12.1303 19.9235 15.1771 20.4554V20.441Z"/><path fill="#E9E7E1" d="M35.4616 5.31855C36.3771 6.08042 37.1066 6.65545 37.779 7.27357C42.1562 11.2986 42.571 12.4917 40.2251 17.8966C38.1509 22.6835 35.5474 27.2548 33.3588 31.9985C32.3289 34.2266 30.6696 34.8016 28.5096 34.7154C27.4224 34.6723 26.278 35.1323 25.3625 33.8816C23.4457 31.2654 23.3742 31.3373 25.0907 28.5629C29.4107 21.6198 32.8439 14.2742 35.0325 6.36794C35.1183 6.08044 35.247 5.80732 35.4473 5.3042L35.4616 5.31855Z"/><path fill="#E9E7E1" d="M0.600586 21.275C0.82946 17.8968 1.80219 15.065 3.36139 12.4343C3.64748 11.9455 4.39131 11.5718 4.9778 11.4568C12.0586 10.0193 19.2109 9.51617 26.4204 9.88992C27.0212 9.91867 27.6649 10.4505 28.1513 10.9105C28.6376 11.3562 28.9523 12.003 29.3243 12.5637C30.5688 14.4325 30.44 16.6606 28.9523 18.3281C28.7521 18.5581 28.3229 18.7162 28.0225 18.7018C18.8247 18.0837 9.75555 18.9606 0.600586 21.275Z"/><path fill="#E9E7E1" d="M8.86872 20.9875C7.00912 25.5444 5.29254 29.7563 3.43294 34.3132C5.59294 34.73 7.46686 35.2619 9.36938 35.4057C11.558 35.5638 13.0314 36.3975 14.2329 38.3094C15.7207 40.6813 17.5945 42.8232 19.3396 45.1088C11.4721 44.8788 0.228718 36.57 0.471897 22.8707C3.16117 22.2669 5.92198 21.6488 8.88304 20.9875H8.86872Z"/><path fill="#E9E7E1" d="M27.3784 36.5844C32.0131 35.8656 36.3617 35.19 40.7103 34.5C40.882 34.4713 41.0393 34.3419 41.4399 34.1263C40.5959 31.855 39.6804 29.5838 38.9366 27.2694C38.6934 26.4931 38.6791 25.4869 38.9795 24.7394C40.2383 21.5338 41.6401 18.3856 42.9848 15.2231C47.1617 24.2075 43.6714 37.145 33.1289 42.8519C31.2693 40.825 29.3668 38.7406 27.3784 36.57V36.5844Z"/><path fill="#E9E7E1" d="M31.4551 12.7362C28.4368 8.82619 25.6474 5.21806 22.6434 1.33682C20.9984 3.30619 19.4821 4.97369 18.1518 6.77056C17.3221 7.87744 16.4781 8.46681 15.0191 8.56744C11.7863 8.81181 8.58202 9.34372 5.39209 9.76059C10.6848 1.45184 24.5316 -1.73944 34.0299 4.57119C33.2146 7.17306 32.3706 9.84681 31.4551 12.7362Z"/></svg>