<svg xmlns="http://www.w3.org/2000/svg" width="75" height="75" fill="none" viewBox="0 0 75 75"><path fill="#E9E7E1" fill-rule="evenodd" d="M10.7231 19.0747V37.8185L37.9464 47.7489L65.0584 37.8185V19.0747L37.9464 29.0044L10.7231 19.0747Z" clip-rule="evenodd"/><path fill="#E9E7E1" fill-rule="evenodd" d="M10.7232 41.899V60.6428L37.9465 70.5724L65.0585 60.6428V41.899L37.9465 51.829L10.7232 41.899ZM34.3205 7.21641H36.8025L38.5601 14.1337L40.3448 7.21641H42.7996L40.2616 17.1461H36.8862L34.3205 7.21641ZM48.3784 7.21641H43.6646V17.1465H46.2026V11.233C46.2026 9.92177 47.0392 9.89415 48.3784 9.89415V7.21641ZM61.4321 9.89415C62.2687 9.89415 62.5477 10.1731 62.5477 11.1213V17.1461H65.0585V9.89415C65.0585 8.83426 64.5005 7.10474 62.436 7.21641H57.7221V17.1465H60.2329V9.89415H61.4321ZM52.6736 7.21641C48.5827 7.21641 48.9917 9.69882 48.9917 12.0419C48.9917 14.6636 48.6574 17.1465 52.7297 17.1465C56.8015 17.1465 56.3552 14.664 56.3552 11.9863C56.3556 9.3642 56.8579 7.21641 52.6736 7.21641ZM52.6736 14.58C51.5301 14.58 51.4745 13.715 51.4745 12.0976C51.4745 10.5358 51.6134 9.75446 52.6736 9.75446C53.7339 9.75446 53.8195 10.4801 53.8456 12.0416C53.8728 13.7434 53.8456 14.58 52.6736 14.58ZM29.467 13.1579H33.9423C33.9384 12.8536 33.9295 12.6365 33.9295 12.3489C33.9295 9.72684 34.3201 7.2168 30.4708 7.2168C26.3795 7.2168 26.7888 10.0058 26.7888 12.3489C26.7888 14.4687 26.7332 17.1465 30.8054 17.1465H33.9291V14.6921H30.6377C30.0249 14.6952 29.523 14.1061 29.467 13.1579ZM29.467 10.4521C29.467 9.28055 31.2521 9.33619 31.2521 10.2848V10.9821H29.467V10.4521ZM18.2261 4.427V17.1461H20.7365V10.954C20.7925 9.55953 23.1633 9.55953 23.1633 10.8984V17.1465H25.6737V10.1451C25.6737 8.52726 24.6138 7.35609 22.717 7.35609C21.6011 7.35609 20.9038 7.49539 20.7365 7.71873V4.42739L18.2261 4.427ZM17.0269 4.427H14.1818C10.5555 4.427 9.94189 7.43975 9.94189 10.8424C9.94189 14.245 10.5555 17.1461 13.6239 17.1461H17.0269V14.4683H14.5721C12.7869 14.4683 12.8986 12.0139 12.8986 10.7863C12.8986 9.55914 12.564 7.27166 15.0184 7.21641H17.0269V4.427Z" clip-rule="evenodd"/></svg>