<svg xmlns="http://www.w3.org/2000/svg" width="217" height="41" fill="none" viewBox="0 0 217 41"><g clip-path="url(#clip0_2_117)"><path fill="#E9E7E1" d="M8.03975 10.7152C11.5892 10.7152 14.4674 8.31701 14.4674 5.35762C14.4674 2.39822 11.5909 0 8.03975 0C4.48859 0 1.61377 2.39822 1.61377 5.35762C1.61377 8.31701 4.49198 10.7152 8.04144 10.7152H8.03975Z"/><path fill="#E9E7E1" d="M50.3196 6.36401C43.1428 6.36401 39.1492 9.62191 36.9897 16.5726V7.82921H20.3679V39.9766H37.205V25.1523C37.205 21.0791 38.7695 19.0152 42.1156 19.0152C45.4616 19.0152 46.6481 21.2412 46.6481 25.0432V39.9766H63.4852V21.7853C63.4852 11.5221 58.9526 6.3623 50.318 6.3623L50.3196 6.36401Z"/><path fill="#E9E7E1" d="M8.03967 13.5961C4.65125 13.5961 1.67981 12.1156 0 9.88965V39.8844H16.0268V9.95958C14.3368 12.1463 11.3925 13.5961 8.03967 13.5961Z"/><path fill="#E9E7E1" d="M75.7472 13.5961C72.3588 13.5961 69.3873 12.1156 67.7075 9.88965V39.8844H83.7343V9.95958C82.0443 12.1463 79.1 13.5961 75.7472 13.5961Z"/><path fill="#E9E7E1" d="M75.6913 10.7152C79.2408 10.7152 82.119 8.31701 82.119 5.35762C82.119 2.39822 79.2425 0 75.6913 0C72.1402 0 69.2637 2.39822 69.2637 5.35762C69.2637 8.31701 72.1419 10.7152 75.6913 10.7152Z"/><path fill="#E9E7E1" d="M87.7618 3.97266H103.765V7.55634H113.252V13.0419C113.252 16.4243 110.528 19.1654 107.167 19.1654H103.767V28.4887H113.254V39.9545H95.7896C91.3299 39.9545 87.7161 36.3162 87.7161 31.8302V3.97266H87.7652H87.7618Z"/><path fill="#E9E7E1" d="M128.553 3.89917H158.224V10.6265H137.191V18.1299H156.99V24.5979H137.191V40.1215H128.552V3.89917H128.553Z"/><path fill="#E9E7E1" d="M164.55 3.89917H173.19V40.1198H164.55V3.89917Z"/><path fill="#E9E7E1" d="M181.673 24.9066V3.89917H190.261V24.7002C190.261 30.4433 193.654 33.6518 199.363 33.6518C205.072 33.6518 208.413 30.4433 208.413 24.7002V3.89917H217V24.9066C217 34.7895 210.11 40.9999 199.363 40.9999C188.616 40.9999 181.673 34.7912 181.673 24.9066Z"/></g><defs><clipPath id="clip0_2_117"><rect width="217" height="41" fill="#fff"/></clipPath></defs></svg>