<svg xmlns="http://www.w3.org/2000/svg" width="219" height="47" fill="none" viewBox="0 0 219 47"><g clip-path="url(#clip0_2_152)"><path fill="#E9E7E1" d="M91.0769 9.39992V37.5999H86.2117V15.4708H86.1468L77.4543 37.5999H74.2108L65.3237 15.4708V37.5999H60.8477V9.39992H67.8536L75.8974 30.2888H76.0272L84.5251 9.39992H91.1418H91.0769ZM95.0988 11.5541C95.0988 10.7708 95.3583 10.118 95.9421 9.59576C96.526 9.07354 97.1747 8.81242 97.9531 8.81242C98.7315 8.81242 99.51 9.07354 100.029 9.59576C100.548 10.118 100.872 10.7708 100.872 11.5541C100.872 12.3374 100.613 12.9902 100.029 13.5124C99.4451 14.0346 98.7964 14.2958 97.9531 14.2958C97.1098 14.2958 96.4611 14.0346 95.9421 13.5124C95.4232 12.9249 95.0988 12.2721 95.0988 11.5541ZM100.353 17.3638V37.5999H95.6178V17.3638H100.353ZM114.689 34.1402C115.403 34.1402 116.181 34.0096 117.025 33.618C117.868 33.2916 118.647 32.8346 119.36 32.3124V36.7513C118.582 37.2083 117.738 37.5346 116.765 37.7305C115.792 37.9263 114.754 38.0569 113.587 38.0569C110.603 38.0569 108.203 37.143 106.386 35.2499C104.505 33.3569 103.597 30.9416 103.597 28.0694C103.597 25.1971 104.57 22.1291 106.451 20.0402C108.332 17.9513 110.992 16.9069 114.495 16.9069C117.998 16.9069 116.311 17.0374 117.155 17.2333C118.063 17.4291 118.776 17.7555 119.295 18.0166V22.586C118.582 22.0638 117.803 21.6069 117.09 21.3458C116.311 21.0846 115.533 20.8888 114.754 20.8888C112.873 20.8888 111.381 21.4763 110.213 22.7166C109.046 23.9569 108.527 25.5888 108.527 27.6777C108.527 29.7666 109.111 31.3333 110.213 32.443C111.316 33.5527 112.808 34.1402 114.689 34.1402ZM132.788 17.0374C133.177 17.0374 133.502 17.0374 133.826 17.1027C134.15 17.168 134.41 17.2333 134.604 17.2985V22.1291C134.345 21.9333 134.021 21.7374 133.502 21.6069C132.983 21.4763 132.464 21.3458 131.75 21.3458C130.583 21.3458 129.61 21.868 128.831 22.8471C128.053 23.8263 127.599 25.3277 127.599 27.4166V37.5999H122.863V17.3638H127.599V20.5624H127.663C128.118 19.4527 128.766 18.6041 129.61 17.9513C130.518 17.3638 131.556 17.0374 132.788 17.0374ZM134.864 27.8083C134.864 24.4791 135.837 21.8027 137.653 19.8444C139.535 17.886 142.129 16.9069 145.438 16.9069C148.746 16.9069 151.016 17.8208 152.768 19.7138C154.519 21.6069 155.428 24.1527 155.428 27.3513C155.428 30.5499 154.455 33.2263 152.638 35.1846C150.757 37.143 148.227 38.1221 144.984 38.1221C141.74 38.1221 139.405 37.2083 137.588 35.3805C135.772 33.4874 134.864 30.9416 134.864 27.8083ZM139.794 27.6124C139.794 29.7013 140.248 31.3333 141.221 32.443C142.194 33.5527 143.556 34.1402 145.308 34.1402C147.059 34.1402 148.357 33.618 149.265 32.443C150.173 31.3333 150.627 29.7013 150.627 27.4819C150.627 25.2624 150.173 23.6958 149.265 22.5208C148.357 21.411 146.995 20.8235 145.373 20.8235C143.751 20.8235 142.324 21.411 141.351 22.586C140.248 23.8263 139.794 25.4583 139.794 27.6124ZM162.498 22.7166C162.498 23.3694 162.693 23.9569 163.147 24.3485C163.601 24.7402 164.509 25.1971 166.001 25.7846C167.883 26.568 169.245 27.4166 169.958 28.3305C170.737 29.3096 171.126 30.4194 171.126 31.7902C171.126 33.161 170.413 35.1846 168.921 36.3596C167.493 37.5346 165.482 38.0569 163.017 38.0569C160.552 38.0569 161.266 37.9263 160.228 37.7305C159.19 37.5346 158.347 37.2735 157.633 36.9471V32.2471C158.477 32.8346 159.45 33.3569 160.423 33.6833C161.396 34.0096 162.304 34.2055 163.147 34.2055C163.99 34.2055 165.028 34.0749 165.482 33.7485C166.001 33.4221 166.261 32.9652 166.261 32.2471C166.261 31.5291 166.001 31.0721 165.482 30.5499C164.963 30.093 163.926 29.5708 162.498 28.9833C160.747 28.2652 159.514 27.4166 158.801 26.5027C158.087 25.5888 157.698 24.4138 157.698 22.9777C157.698 21.5416 158.412 19.6485 159.839 18.4735C161.266 17.2985 163.147 16.711 165.418 16.711C167.688 16.711 166.91 16.7763 167.753 16.9721C168.596 17.168 169.375 17.3638 169.958 17.5596V22.1944C169.31 21.8027 168.596 21.411 167.753 21.0846C166.91 20.7583 166.066 20.6277 165.288 20.6277C164.509 20.6277 163.666 20.8235 163.212 21.1499C162.758 21.6069 162.498 22.0638 162.498 22.7166ZM173.137 27.8083C173.137 24.4791 174.11 21.8027 175.926 19.8444C177.808 17.886 180.402 16.9069 183.711 16.9069C187.019 16.9069 189.29 17.8208 191.041 19.7138C192.793 21.6069 193.701 24.1527 193.701 27.3513C193.701 30.5499 192.728 33.2263 190.911 35.1846C189.03 37.143 186.5 38.1221 183.257 38.1221C180.013 38.1221 177.678 37.2083 175.862 35.3805C174.11 33.4874 173.137 30.9416 173.137 27.8083ZM178.067 27.6124C178.067 29.7013 178.521 31.3333 179.494 32.443C180.467 33.5527 181.83 34.1402 183.581 34.1402C185.333 34.1402 186.63 33.618 187.538 32.443C188.446 31.3333 188.9 29.7013 188.9 27.4819C188.9 25.2624 188.446 23.6958 187.538 22.5208C186.63 21.411 185.268 20.8235 183.646 20.8235C182.024 20.8235 180.597 21.411 179.624 22.586C178.586 23.8263 178.067 25.4583 178.067 27.6124ZM209.464 21.2805H202.393V37.5999H197.593V21.2805H194.22V17.3638H197.593V14.5569C197.593 12.468 198.306 10.7055 199.669 9.33465C201.031 7.96381 202.782 7.31104 204.923 7.31104C207.064 7.31104 206.026 7.37631 206.48 7.37631C206.934 7.37631 207.323 7.50687 207.648 7.63742V11.7499C207.518 11.6846 207.194 11.5541 206.804 11.4235C206.415 11.293 205.961 11.2277 205.442 11.2277C204.469 11.2277 203.691 11.5541 203.172 12.1416C202.653 12.7291 202.393 13.7083 202.393 14.8833V17.2985H209.464V12.7291L214.2 11.293V17.2985H219V21.2152H214.2V30.6805C214.2 31.9208 214.459 32.7694 214.848 33.2916C215.302 33.8138 216.016 34.0749 216.989 34.0749C217.962 34.0749 217.573 34.0749 217.962 33.8791C218.351 33.6833 218.676 33.618 218.935 33.4221V37.3388C218.611 37.5346 218.157 37.6652 217.443 37.7958C216.729 37.9263 216.081 37.9916 215.367 37.9916C213.356 37.9916 211.864 37.4694 210.891 36.4249C209.918 35.3805 209.399 33.7485 209.399 31.5944V21.2805H209.464Z"/><path fill="#E9E7E1" d="M22.1854 0H0V22.325H22.1854V0Z"/><path fill="#E9E7E1" d="M46.7062 0H24.5208V22.325H46.7062V0Z"/><path fill="#E9E7E1" d="M22.1854 24.675H0V47H22.1854V24.675Z"/><path fill="#E9E7E1" d="M46.7062 24.675H24.5208V47H46.7062V24.675Z"/></g><defs><clipPath id="clip0_2_152"><rect width="219" height="47" fill="#fff"/></clipPath></defs></svg>