<svg xmlns="http://www.w3.org/2000/svg" width="162" height="64" fill="none" viewBox="0 0 162 64"><g clip-path="url(#clip0_2_159)"><path fill="#E9E7E1" d="M-0.00683594 64.0071H161.993V-0.00196838H-0.00683594V64.0071Z"/><path fill="#1F1F1F" d="M17.0638 32.8068C20.8286 32.8068 24.5354 34.086 24.5354 37.8652C24.5354 40.8228 21.6536 42.5128 19.9571 42.9353C23.3037 43.3461 26.6386 45.0244 26.6386 48.3928C26.6386 52.5944 23.3037 54.6953 19.1321 54.6953H8.31396V53.8737H9.97561C11.2189 53.4629 11.2189 53.4629 11.2189 52.1837V47.982V39.5552V35.3536C11.2189 34.0861 11.2189 34.0861 9.97561 34.0861C8.31396 33.6753 8.31396 33.6753 8.31396 33.6753V32.8068H17.0638ZM14.5539 34.0861V42.9353H16.6571C19.5504 42.9353 21.2353 41.6561 21.2353 38.2877C21.2353 35.7644 19.5504 33.6753 16.6571 33.6753C15.7972 33.6753 14.5539 34.0861 14.5539 34.0861ZM14.5539 43.7569V51.3621C14.5539 53.4629 15.7972 53.8737 18.3071 53.8737C21.6537 53.8737 23.3037 51.7729 23.3037 48.3928C23.3037 45.0244 19.9571 43.7569 16.6571 43.7569H14.5539ZM33.2852 47.982V52.1837C33.2852 53.4629 33.7035 53.4629 34.5634 53.8737H35.8067V54.6953H28.3002V53.8737H29.1253C30.3918 53.4629 30.3918 53.4629 30.3918 52.1837V47.982V34.9076C30.3918 33.6753 29.9851 33.2176 28.7069 33.2176H27.4636V32.396C29.5319 32.396 31.6352 31.9852 33.2852 31.5745V37.8652V47.982ZM44.9633 53.0052C43.7315 53.8737 42.4533 54.6953 40.8033 54.6953C38.7001 54.6953 37.4567 53.0052 37.4567 51.3621C37.4567 47.982 41.2216 47.1253 44.9633 46.7145V42.9353C44.9633 41.6561 44.1498 40.8228 42.8716 40.8228C41.6283 40.8228 41.2216 41.2453 40.8033 42.0668C40.385 43.3461 39.9783 43.7569 39.1417 43.7569C38.2934 43.7569 37.8751 43.3461 37.8751 42.9353C37.8751 41.2453 41.2216 39.966 43.2783 39.966C46.6249 39.966 47.8566 40.8228 47.8566 43.3461V51.3621C47.8566 52.1836 48.3098 52.5945 49.1348 52.5945C49.9598 52.5945 50.3781 52.1837 50.7848 52.1837L51.2032 52.5945C49.9598 53.8737 48.7281 54.6953 47.0316 54.6953C45.7999 54.6953 45.3816 53.8737 44.9633 53.0052ZM44.9633 47.5361C42.4533 47.5361 39.9783 48.3928 39.9783 50.4936C39.9783 51.7729 41.2216 53.0052 42.4533 53.0052C43.7315 53.0052 44.5566 52.5944 44.9633 52.1837V47.5361ZM63.7062 42.0668C63.7062 42.9353 63.2879 43.3461 62.4745 43.3461C61.603 43.3461 61.1963 42.5128 60.778 42.0668C60.3713 41.2453 59.5346 40.8228 58.7096 40.8228C56.1997 40.8228 54.5381 42.9353 54.5381 46.3037C54.5381 50.0828 56.6064 52.5945 59.953 52.5945C61.603 52.5945 62.8812 52.1836 63.7062 51.3621L64.1245 51.7729C62.4745 53.8737 60.3713 54.6953 58.3029 54.6953C54.5381 54.6953 52.0282 51.3621 52.0282 47.5361C52.0282 43.3462 54.538 39.966 59.1279 39.966C61.603 39.966 63.7062 40.8228 63.7062 42.0668ZM70.3528 47.982V52.1837C70.3528 53.4629 70.7711 53.4629 71.631 53.8737H72.8743V54.6953H64.9495V53.8737H66.1812C67.4594 53.4629 67.4594 53.4629 67.4594 52.1837V47.982V34.9076C67.4594 33.6753 67.0527 33.2176 65.7745 33.2176H64.5312V32.396C66.6344 32.396 68.7028 31.9852 70.3528 31.5745V37.8652V47.1252L75.8025 42.0668C76.2092 41.6561 75.8026 41.2453 75.3494 40.8228H74.1177V39.966H80.3808V40.8228C78.6959 40.8228 78.2776 41.2453 77.4526 42.0668L72.8743 46.3037C78.6959 52.5944 78.6959 52.5945 78.6959 52.5945C79.5209 53.463 79.9392 53.8737 81.2058 53.8737V54.6953H74.1177V53.8737H75.3494C75.8026 53.8737 75.8026 53.4629 75.3494 53.0052C73.281 50.4936 73.281 50.4936 73.281 50.4936C71.631 48.8153 70.7711 47.5361 70.3528 47.5361V47.982ZM84.0992 54.2845C84.0992 54.2845 83.6809 54.2845 83.2742 54.6953H82.8675V49.672H83.2742C84.0992 52.5944 85.3774 53.8737 87.4457 53.8737C89.5373 53.8737 90.3739 53.0052 90.3739 51.7729C90.3739 50.4936 89.9556 49.6721 87.0274 48.8153C84.9591 47.982 83.2742 46.7145 83.2742 44.2029C83.2742 41.2453 85.7957 39.966 88.2707 39.966C89.9556 39.966 90.7806 40.3768 91.199 40.3768L92.024 39.966H92.4307V44.6136H91.6057C91.199 42.0668 90.374 40.8228 88.2707 40.8228C86.6091 40.8228 85.3774 41.6561 85.3774 42.9353C85.3774 44.6136 86.2024 45.0244 88.6774 45.8577C91.199 47.1252 92.849 47.982 92.849 50.0829C92.849 53.4629 90.374 54.6953 87.4457 54.6953C85.7957 54.6953 84.9591 54.2845 84.0992 54.2845ZM96.6022 51.7729V41.6561H94.9522V41.2453C96.6022 39.966 97.8456 38.7337 99.1121 36.5977H99.5305V40.3768H104.12V41.6561H99.5305V50.9161C99.5305 52.5944 100.355 53.0052 101.599 53.0052C102.424 53.0052 102.842 53.0052 104.12 52.1837V52.5945C102.842 54.2845 101.599 54.6953 99.9488 54.6953C97.8456 54.6953 96.6022 53.463 96.6022 51.7729ZM105.352 47.5361C105.352 42.9354 109.105 39.966 112.87 39.966C116.577 39.966 120.342 42.9354 120.342 47.5361C120.342 51.7729 116.577 54.6953 112.87 54.6953C109.105 54.6953 105.352 52.1837 105.352 47.5361ZM117.03 47.5361C117.03 43.7569 115.345 40.8228 112.452 40.8228C109.93 40.8228 108.699 43.7569 108.699 47.1252C108.699 50.9161 109.93 53.8737 112.87 53.8737C115.763 53.8737 117.03 50.9162 117.03 47.5361ZM133.252 45.0245C133.252 42.9354 132.426 41.6561 130.776 41.6561C128.673 41.6561 127.848 42.5128 127.023 42.9353V47.982V52.1837C127.023 53.4629 127.442 53.4629 128.255 53.8737H129.498V54.6953H121.608V53.8737H122.852C124.095 53.4629 124.095 53.4629 124.095 52.1837V47.982V44.2029C124.095 42.5128 123.677 41.6561 122.433 41.6561H121.608V40.8228C123.677 40.8228 125.327 40.3768 127.023 39.5552V42.0668C128.673 40.8228 130.323 39.966 132.426 39.966C134.902 39.966 136.598 41.6561 136.598 44.2029V47.982V52.1837C136.598 53.4629 136.598 53.4629 137.83 53.8737H138.666V54.6953H131.183V53.8737H132.02C133.252 53.4629 133.252 53.4629 133.252 52.1837V47.982V45.0245ZM139.898 47.5361C139.898 43.7569 142.42 39.966 146.58 39.966C149.926 39.966 151.994 42.5128 152.401 45.8577H142.42C142.42 49.672 144.07 52.5945 147.823 52.5945C149.926 52.5945 151.576 51.7729 151.994 51.3621L152.401 51.7729C150.751 53.463 148.648 54.6953 146.173 54.6953C142.42 54.6953 139.898 51.3621 139.898 47.5361ZM142.826 45.0245H149.519C149.519 42.9354 148.241 40.8228 146.173 40.8228C144.07 40.8228 142.826 42.9354 142.826 45.0245Z"/></g><defs><clipPath id="clip0_2_159"><rect width="162" height="64" fill="#fff"/></clipPath></defs></svg>