<svg xmlns="http://www.w3.org/2000/svg" width="81" height="70" fill="none" viewBox="0 0 81 70"><path fill="#E9E7E1" d="M80.1344 8.37183C80.1344 4.47983 76.9922 1.32983 73.1098 1.32983C70.5122 1.32983 68.2358 2.75786 67.0208 4.85786L56.8539 22.5679L46.687 4.85786C45.3882 2.58986 43.028 1.32983 40.598 1.32983C39.411 1.32983 38.2099 1.63785 37.1067 2.26785C35.9894 2.91185 35.1235 3.82186 34.523 4.85786L24.3561 22.5679L14.1892 4.85786C12.8905 2.58986 10.5303 1.32983 8.10029 1.32983C6.91322 1.32983 5.71218 1.63785 4.60891 2.26785C1.24322 4.21385 0.0840687 8.51185 2.02527 11.8858L18.2811 40.2079C19.5799 42.4759 21.9401 43.7359 24.3841 43.7359C25.5711 43.7359 26.7722 43.4279 27.8754 42.7979C28.9927 42.1539 29.8585 41.2439 30.4591 40.2079L40.626 22.4979L50.7929 40.2079C52.0917 42.4759 54.4518 43.7359 56.8818 43.7359C58.0689 43.7359 59.2699 43.4279 60.3732 42.7979C61.4904 42.1539 62.3563 41.2439 62.9568 40.2079L79.2127 11.8999C79.8132 10.8639 80.1484 9.65985 80.1484 8.38585L80.1344 8.37183ZM27.2749 41.8179C26.3811 42.3359 25.3617 42.6019 24.3422 42.6019C22.2334 42.6019 20.2642 41.4679 19.2168 39.6339L2.96098 11.3118C2.17891 9.93985 1.96941 8.34385 2.37441 6.81785C2.77941 5.29185 3.757 4.01786 5.12562 3.23386C6.01941 2.71586 7.03889 2.44986 8.05837 2.44986C10.1672 2.44986 12.1363 3.58385 13.1837 5.41785L29.4396 33.7399C30.5289 35.6299 30.4451 37.8699 29.4396 39.6339C28.9368 40.5159 28.2106 41.2719 27.2749 41.8179ZM59.7867 41.8179C58.8929 42.3359 57.8734 42.6019 56.8539 42.6019C54.7451 42.6019 52.776 41.4679 51.7285 39.6339L35.4727 11.3118C34.3834 9.42185 34.4672 7.18185 35.4727 5.41785C35.9754 4.53585 36.7016 3.77986 37.6373 3.23386C38.5311 2.71586 39.5506 2.44986 40.5701 2.44986C42.6789 2.44986 44.648 3.58385 45.6954 5.41785L61.9513 33.7399C63.0406 35.6299 62.9568 37.8699 61.9513 39.6339C61.4485 40.5159 60.7223 41.2719 59.7867 41.8179ZM73.0958 14.2939C69.8418 14.2939 67.1884 11.6338 67.1884 8.37183C67.1884 7.29383 67.4816 6.28585 67.9844 5.41785C69.0039 3.63985 70.9172 2.44986 73.0958 2.44986C76.3498 2.44986 79.0032 5.10983 79.0032 8.37183C79.0032 9.44983 78.7099 10.4579 78.2072 11.3259C77.1877 13.1039 75.2744 14.2939 73.0958 14.2939Z"/><path fill="#E9E7E1" d="M14.4263 57.8198L12.2337 64.9318L10.0272 57.8198H8.09995L5.90736 64.9318L3.68685 57.8198H1.04736L4.85995 68.6698H6.92685L9.06357 61.8518L11.2143 68.6698H13.2532L17.0798 57.8198H14.4263Z"/><path fill="#E9E7E1" d="M28.6435 68.6698L28.2246 67.3538H24.3701L23.9511 68.6698H21.2837L25.1521 57.8198H27.4565L31.3668 68.6698H28.6435ZM26.3113 60.9138L24.9846 65.3798H27.6101L26.3113 60.9138Z"/><path fill="#E9E7E1" d="M45.8213 57.8198H42.8885L40.5982 62.0758L40.5842 62.0898V62.0758L38.2799 57.8198H35.3611L39.3273 64.8198V68.6698H41.8551V64.8198L45.8213 57.8198Z"/><path fill="#E9E7E1" d="M62.8442 68.6698H60.4002V61.9498L58.068 68.6698H56.2106L53.7946 61.9498V68.6698H51.3506V57.8198H54.2414L57.1323 65.3658L59.9952 57.8198H62.8442V68.6698Z"/><path fill="#E9E7E1" d="M68.8496 63.238C68.8496 60.27 70.9863 57.54 74.5894 57.54C78.1925 57.54 80.3013 60.27 80.3013 63.238C80.3013 66.206 78.1646 68.936 74.5894 68.936C71.0143 68.936 68.8496 66.206 68.8496 63.238ZM77.7596 63.238C77.7596 61.46 76.5586 59.794 74.5894 59.794C72.6203 59.794 71.4193 61.446 71.4193 63.238C71.4193 65.03 72.6063 66.682 74.5894 66.682C76.5725 66.682 77.7596 65.03 77.7596 63.238Z"/></svg>